<svg width="18" height="18" viewBox="0 0 18 18" fill="none" xmlns="http://www.w3.org/2000/svg">
<path d="M8.07668 0.84017C8.41827 0.0188775 9.58173 0.0188754 9.92332 0.840168L11.675 5.05164C11.819 5.39788 12.1446 5.63445 12.5184 5.66442L17.065 6.02892C17.9517 6.1 18.3112 7.20651 17.6357 7.78518L14.1716 10.7525C13.8868 10.9965 13.7624 11.3792 13.8495 11.744L14.9078 16.1807C15.1142 17.046 14.1729 17.7298 13.4138 17.2662L9.52125 14.8886C9.20124 14.6932 8.79876 14.6932 8.47875 14.8886L4.58619 17.2662C3.82709 17.7298 2.88583 17.046 3.09222 16.1808L4.15055 11.744C4.23756 11.3792 4.11318 10.9965 3.8284 10.7525L0.364336 7.78518C-0.311201 7.20651 0.0483234 6.1 0.934978 6.02892L5.48162 5.66442C5.85541 5.63445 6.18102 5.39788 6.32503 5.05164L8.07668 0.84017Z" fill="#FF2D23"/>
</svg>
